<svg viewBox="0 0 30 30" fill="none" xmlns="http://www.w3.org/2000/svg"><path d="M27.188 7.45c-.897.387-1.873.665-2.877.774a4.984 4.984 0 0 0 2.197-2.754 9.863 9.863 0 0 1-3.17 1.207 4.984 4.984 0 0 0-3.65-1.58 4.994 4.994 0 0 0-4.996 4.999c0 .386.047.773.123 1.145a14.197 14.197 0 0 1-10.3-5.23 4.96 4.96 0 0 0-.68 2.523c0 1.735.882 3.264 2.227 4.163a5.04 5.04 0 0 1-2.26-.635v.061a4.997 4.997 0 0 0 4.006 4.904c-.43.112-.872.169-1.316.17-.325 0-.633-.032-.943-.076a5.004 5.004 0 0 0 4.67 3.466 10.012 10.012 0 0 1-6.202 2.136c-.42 0-.806-.015-1.207-.062a14.146 14.146 0 0 0 7.672 2.241c9.188 0 14.215-7.611 14.215-14.217 0-.217 0-.434-.014-.65a10.76 10.76 0 0 0 2.505-2.585Z" fill="#fff"/></svg>