<svg viewBox="0 0 70 70" fill="none" xmlns="http://www.w3.org/2000/svg"><circle cx="35" cy="35" r="35" fill="#DFEDFF"/><path d="M28.599 31.395h-8.98c0 8.723 8.466 8.21 8.466 8.21s8.724.43 8.724-8.21c0-3.218-1.024-5.444-2.407-6.928m-5.803 6.928V21.9c1.553-.048 3.988.62 5.803 2.566m-5.803 6.928 5.803-6.928" stroke="#0063DD" stroke-width="1.814"/><path d="M22.44 41.914v10.777h30.02V23.44m0 0-6.67-6.415m6.67 6.415h-6.67v-6.415m0 0H22.44V20.105M40.145 27.033h8.723m-8.723 3.592h8.723m-8.723 3.592h8.723" stroke="#0063DD" stroke-width="1.814" stroke-linecap="round"/><path d="M26.033 19.849v8.98h-9.494c0-4.619 2.823-6.671 2.823-6.671s2.566-2.31 6.67-2.31Z" stroke="#0063DD" stroke-width="1.814"/><path stroke="#0063DD" stroke-width="1.026" d="m29.247 48.752 5.644-6.158M35.103 42.563l6.158 5.644M47.448 41.237l-6.671 7.185"/><circle cx="29.368" cy="48.329" r="2.309" fill="#0F7BFF"/><circle cx="35.013" cy="42.684" r="2.309" fill="#0F7BFF"/><circle cx="40.658" cy="48.329" r="2.309" fill="#0F7BFF"/><circle cx="47.329" cy="41.145" r="2.309" fill="#0F7BFF"/></svg>